<svg width="24" height="24" viewBox="0 0 24 24" fill="none" xmlns="http://www.w3.org/2000/svg">
<g clip-path="url(#clip0_2902_886)">
<path d="M23.9998 11.2471C23.8552 8.9071 23.029 6.66059 21.623 4.7845C20.2171 2.90841 18.2928 1.48477 16.0876 0.68907C13.8823 -0.106627 11.4923 -0.239591 9.21241 0.306571C6.93247 0.852733 4.86219 2.05414 3.2568 3.76269C1.65141 5.47124 0.581088 7.61224 0.177789 9.92173C-0.22551 12.2312 0.0558434 14.6083 0.987163 16.7598C1.91848 18.9113 3.45905 20.7433 5.41895 22.0298C7.37885 23.3164 9.6724 24.0013 12.0168 24.0001H18.9998C20.3255 23.9988 21.5965 23.4715 22.5339 22.5341C23.4713 21.5968 23.9985 20.3258 23.9998 19.0001V11.2471ZM21.9998 19.0001C21.9998 19.7957 21.6838 20.5588 21.1212 21.1214C20.5586 21.684 19.7955 22.0001 18.9998 22.0001H12.0168C10.6058 21.9994 9.21069 21.7014 7.92254 21.1254C6.6344 20.5494 5.48212 19.7083 4.54085 18.6571C3.59502 17.6064 2.88478 16.3655 2.45774 15.0179C2.0307 13.6702 1.89675 12.2468 2.06485 10.8431C2.33028 8.62902 3.32504 6.56626 4.89229 4.98C6.45954 3.39374 8.51015 2.37419 10.7208 2.08207C11.1521 2.02803 11.5862 2.00064 12.0208 2.00007C14.3513 1.99372 16.6097 2.80798 18.3998 4.30008C19.4454 5.16902 20.3036 6.24123 20.9224 7.45171C21.5412 8.66218 21.9078 9.98572 21.9998 11.3421V19.0001Z" fill="#333333"/>
</g>
<path d="M10.5386 8.98926L7.77734 17H6.10791L9.58643 7.75781H10.6528L10.5386 8.98926ZM12.8491 17L10.0815 8.98926L9.96094 7.75781H11.0337L14.5249 17H12.8491ZM12.7158 13.5723V14.8354H7.68848V13.5723H12.7158ZM17.1307 7.75781V17H15.5375V7.75781H17.1307Z" fill="#333333"/>
<defs>
<clipPath id="clip0_2902_886">
<rect width="24" height="24" fill="white"/>
</clipPath>
</defs>
</svg>
