<svg width="18" height="18" viewBox="0 0 18 18" fill="none" xmlns="http://www.w3.org/2000/svg">
<g clip-path="url(#clip0_2770_1547)">
<path d="M15.1199 5.74611L8.08158 0.698036C7.53185 0.304564 6.88138 0.0675993 6.20229 0.0134182C5.5232 -0.0407628 4.84203 0.0899568 4.2343 0.391082C3.62657 0.692208 3.11604 1.15197 2.75931 1.7194C2.40259 2.28682 2.2136 2.93973 2.21332 3.60573V13.7019C2.21344 14.3682 2.40243 15.0214 2.75933 15.5891C3.11622 16.1568 3.62705 16.6167 4.23513 16.9178C4.84321 17.2189 5.52475 17.3494 6.20412 17.2949C6.88349 17.2404 7.53412 17.0029 8.08379 16.6089L15.1222 11.5608C15.5894 11.2259 15.9693 10.7881 16.2312 10.2829C16.4931 9.77777 16.6295 9.21941 16.6295 8.65308C16.6295 8.08676 16.4931 7.5284 16.2312 7.02323C15.9693 6.51807 15.5894 6.0803 15.1222 5.74539L15.1199 5.74611ZM14.2464 10.3976L7.20805 15.4456C6.87828 15.6812 6.48826 15.8229 6.08115 15.8552C5.67405 15.8875 5.26575 15.809 4.90145 15.6285C4.53714 15.448 4.23105 15.1725 4.01703 14.8325C3.80302 14.4924 3.68944 14.1011 3.68887 13.7019V3.60573C3.68477 3.20574 3.79621 2.81273 4.01037 2.47187C4.22453 2.13102 4.53273 1.85613 4.89955 1.67881C5.21155 1.52368 5.55658 1.44264 5.90662 1.44227C6.37576 1.44402 6.83195 1.59291 7.20805 1.86703L14.2464 6.9151C14.5264 7.11609 14.7541 7.37866 14.911 7.68159C15.0679 7.98453 15.1496 8.31931 15.1496 8.65885C15.1496 8.9984 15.0679 9.33318 14.911 9.63611C14.7541 9.93904 14.5264 10.2016 14.2464 10.4026V10.3976Z" fill="#8B8B8B"/>
</g>
<defs>
<clipPath id="clip0_2770_1547">
<rect width="17.7066" height="17.3077" fill="white"/>
</clipPath>
</defs>
</svg>
