<svg width="22" height="22" viewBox="0 0 22 22" fill="none" xmlns="http://www.w3.org/2000/svg">
<g clip-path="url(#clip0_2919_916)">
<path d="M20.6571 7.75499C20.2322 7.32876 19.7271 6.99101 19.1709 6.76128C18.6147 6.53156 18.0184 6.41443 17.4166 6.41666V6.41666H2.56664L6.5083 2.47499C6.67994 2.30262 6.77608 2.06913 6.77556 1.82588C6.77505 1.58263 6.67792 1.34955 6.50555 1.17791C6.33318 1.00627 6.09969 0.910131 5.85644 0.910647C5.61319 0.911162 5.38011 1.00829 5.20847 1.18066L0.670969 5.71724C0.241348 6.14699 0 6.72978 0 7.33745C0 7.94512 0.241348 8.52791 0.670969 8.95766L5.20847 13.4961C5.29358 13.5814 5.39466 13.6492 5.50595 13.6955C5.61724 13.7417 5.73656 13.7656 5.85709 13.7658C5.97762 13.766 6.097 13.7424 6.20842 13.6964C6.31984 13.6505 6.42112 13.583 6.50647 13.4979C6.59182 13.4128 6.65957 13.3117 6.70585 13.2004C6.75213 13.0891 6.77604 12.9698 6.77621 12.8493C6.77638 12.7288 6.75281 12.6094 6.70684 12.498C6.66087 12.3865 6.59341 12.2853 6.5083 12.1999L2.55564 8.24999H17.4166C18.146 8.24999 18.8455 8.53972 19.3612 9.05545C19.8769 9.57117 20.1666 10.2706 20.1666 11V17.4167C20.1666 18.146 19.8769 18.8455 19.3612 19.3612C18.8455 19.8769 18.146 20.1667 17.4166 20.1667H4.5833C4.34019 20.1667 4.10703 20.2632 3.93512 20.4351C3.76321 20.607 3.66664 20.8402 3.66664 21.0833C3.66664 21.3264 3.76321 21.5596 3.93512 21.7315C4.10703 21.9034 4.34019 22 4.5833 22H17.4166C18.6318 21.9985 19.7967 21.5152 20.6559 20.656C21.5152 19.7967 21.9985 18.6318 22 17.4167V11C22.002 10.3971 21.8843 9.79989 21.6538 9.24286C21.4233 8.68583 21.0845 8.1801 20.6571 7.75499Z" fill="#374957"/>
</g>
<defs>
<clipPath id="clip0_2919_916">
<rect width="22" height="22" fill="white"/>
</clipPath>
</defs>
</svg>
