<svg width="24" height="24" viewBox="0 0 24 24" fill="none" xmlns="http://www.w3.org/2000/svg">
<g clip-path="url(#clip0_2919_954)">
<path d="M14.9573 10.3555C14.9584 10.6999 15.2379 10.9785 15.5823 10.9785C15.5823 10.9785 16.6543 10.9785 17.0683 10.9665C18.6003 10.9405 19.7003 9.60851 19.7003 7.80054C19.7003 5.90056 18.6203 4.62256 17.0143 4.62256H15.5713C15.2258 4.62368 14.9463 4.90404 14.9463 5.24956L14.9573 10.3555ZM17.0183 5.87248C18.0773 5.87248 18.4543 6.87246 18.4543 7.8005C18.4543 8.72853 18.0203 9.70048 17.0493 9.71651C16.8493 9.71651 16.5114 9.7235 16.2054 9.72551L16.2003 5.87253L17.0183 5.87248Z" fill="#333333"/>
<path d="M12.1224 7.25537C11.8494 7.16237 11.5664 7.11137 11.2874 7.03839C11.066 6.99372 10.8608 6.89008 10.6934 6.73839C10.5262 6.57986 10.4668 6.33841 10.5414 6.12039C10.6362 5.93251 10.8225 5.80806 11.0324 5.79241C11.2387 5.77956 11.4454 5.80989 11.6394 5.88142C11.9184 5.96851 12.1922 6.07169 12.4594 6.19042C12.7534 6.31942 13.1004 6.39644 13.3374 6.11641C13.5129 5.90603 13.526 5.6042 13.3694 5.37939C13.2659 5.22855 13.1259 5.10644 12.9624 5.02441C12.2303 4.59461 11.3568 4.47541 10.5364 4.69342C10.103 4.83058 9.73685 5.12533 9.51035 5.51941C9.40413 5.70634 9.33391 5.91156 9.30335 6.12442C9.24757 6.50725 9.33058 6.89744 9.53735 7.22444C9.77069 7.56606 10.1075 7.82369 10.4983 7.95944C10.9073 8.12744 11.3164 8.29042 11.7313 8.44244C11.9098 8.49911 12.0741 8.59319 12.2134 8.71844C12.3692 8.86731 12.427 9.0918 12.3624 9.29744C12.278 9.49445 12.1107 9.64389 11.9054 9.70544C11.5932 9.82281 11.2512 9.83509 10.9314 9.74045C10.6201 9.62781 10.3326 9.45827 10.0833 9.24044C10.0573 9.21944 9.97235 9.15545 9.95636 9.14045C9.72335 8.97386 9.40502 8.99519 9.19638 9.19145C8.94067 9.42334 8.92136 9.81859 9.15321 10.0743C9.15325 10.0743 9.1533 10.0744 9.15335 10.0745C9.74997 10.708 10.5832 11.0648 11.4534 11.0595C12.4847 11.1048 13.4011 10.4068 13.6314 9.40047C13.7285 8.79152 13.501 8.17605 13.0314 7.77648C12.7658 7.54427 12.4569 7.36717 12.1224 7.25537Z" fill="#333333"/>
<path d="M4.12109 5.16864V10.4306C4.12109 10.7758 4.40094 11.0556 4.74608 11.0556C5.09122 11.0556 5.37106 10.7758 5.37106 10.4306V8.76765H6.21107C7.37638 8.76765 8.32105 7.82298 8.32105 6.65767C8.32105 5.49236 7.37638 4.54769 6.21107 4.54769L6.20507 4.5437H4.74008C4.69766 4.54445 4.47397 4.55265 4.29711 4.73612C4.12794 4.91162 4.12142 5.1234 4.12109 5.16864ZM6.20507 7.51365H5.37308L5.36708 5.79367H6.20507C6.68005 5.79344 7.06527 6.17828 7.06551 6.65326C7.06574 7.12825 6.6809 7.51347 6.20591 7.5137C6.20568 7.51365 6.20535 7.51365 6.20507 7.51365Z" fill="#333333"/>
<path d="M19 0H5.00002C2.23997 0.00332813 0.00332813 2.23997 0 5.00002V19C0.00332813 21.76 2.23997 23.9967 5.00002 24H16.343C17.6699 24.0038 18.9432 23.4766 19.879 22.536L22.535 19.878C23.4758 18.9426 24.0033 17.6697 24 16.343V5.00002C23.9967 2.23997 21.76 0.00332813 19 0ZM2.00002 19V5.00002C2.00002 3.34317 3.34317 2.00002 5.00002 2.00002H19C20.6569 2.00002 22 3.34317 22 5.00002V15H18C16.3432 15 15 16.3432 15 18V22H5.00002C3.34312 22 2.00002 20.6569 2.00002 19ZM18.465 21.122C18.063 21.523 17.5547 21.8006 17 21.922V18C17 17.4477 17.4477 17 18 17H21.925C21.8013 17.5535 21.524 18.0609 21.125 18.464L18.465 21.122Z" fill="#333333"/>
</g>
<defs>
<clipPath id="clip0_2919_954">
<rect width="24" height="24" fill="white"/>
</clipPath>
</defs>
</svg>
