<svg width="18" height="18" viewBox="0 0 18 18" fill="none" xmlns="http://www.w3.org/2000/svg">
<g clip-path="url(#clip0_2770_1553)">
<path d="M8.85329 0C6.67354 0.00151901 4.57135 0.790833 2.9511 2.21611V0.721154C2.9511 0.529892 2.87337 0.346464 2.73501 0.211221C2.59665 0.0759785 2.40899 0 2.21332 0C2.01765 0 1.83 0.0759785 1.69164 0.211221C1.55328 0.346464 1.47555 0.529892 1.47555 0.721154V2.88462C1.47555 3.4584 1.70874 4.00869 2.12382 4.41441C2.5389 4.82014 3.10186 5.04808 3.68887 5.04808H5.9022C6.09787 5.04808 6.28552 4.9721 6.42388 4.83686C6.56224 4.70161 6.63997 4.51819 6.63997 4.32692C6.63997 4.13566 6.56224 3.95223 6.42388 3.81699C6.28552 3.68175 6.09787 3.60577 5.9022 3.60577H3.68887C3.66399 3.60217 3.63936 3.59711 3.6151 3.59063C4.81731 2.40709 6.4025 1.66808 8.10007 1.49976C9.79765 1.33143 11.5024 1.74422 12.9232 2.66766C14.3441 3.59111 15.3931 4.96795 15.8911 6.56319C16.389 8.15842 16.3052 9.87314 15.6538 11.4147C15.0024 12.9562 13.8238 14.2289 12.3193 15.0157C10.8148 15.8024 9.07757 16.0544 7.40417 15.7285C5.73077 15.4027 4.22493 14.5192 3.1437 13.229C2.06247 11.9387 1.47287 10.3217 1.47555 8.65385C1.47555 8.46258 1.39782 8.27916 1.25946 8.14391C1.1211 8.00867 0.933445 7.93269 0.737775 7.93269C0.542105 7.93269 0.354449 8.00867 0.216089 8.14391C0.0777296 8.27916 0 8.46258 0 8.65385C0 10.3654 0.519237 12.0385 1.49205 13.4617C2.46486 14.8848 3.84756 15.994 5.46529 16.649C7.08301 17.3039 8.86312 17.4753 10.5805 17.1414C12.2979 16.8075 13.8754 15.9833 15.1135 14.773C16.3517 13.5628 17.1949 12.0208 17.5365 10.3421C17.8781 8.66345 17.7028 6.92345 17.0327 5.34216C16.3626 3.76088 15.2278 2.40933 13.7719 1.45844C12.316 0.507539 10.6043 0 8.85329 0V0Z" fill="#8B8B8B"/>
<path d="M8.85324 4.32715C8.65757 4.32715 8.46991 4.40313 8.33155 4.53837C8.19319 4.67361 8.11546 4.85704 8.11546 5.0483V8.65407C8.11551 8.84532 8.19326 9.02872 8.33163 9.16393L10.545 11.3274C10.6841 11.4588 10.8705 11.5314 11.0639 11.5298C11.2573 11.5282 11.4424 11.4523 11.5792 11.3186C11.716 11.1849 11.7936 11.004 11.7952 10.8149C11.7969 10.6259 11.7226 10.4437 11.5882 10.3077L9.59101 8.35551V5.0483C9.59101 4.85704 9.51328 4.67361 9.37492 4.53837C9.23656 4.40313 9.04891 4.32715 8.85324 4.32715Z" fill="#8B8B8B"/>
</g>
<defs>
<clipPath id="clip0_2770_1553">
<rect width="17.7066" height="17.3077" fill="white"/>
</clipPath>
</defs>
</svg>
