<svg width="22" height="22" viewBox="0 0 22 22" fill="none" xmlns="http://www.w3.org/2000/svg">
<g clip-path="url(#clip0_2919_917)">
<path d="M15.4917 13.4966C15.6636 13.6685 15.8967 13.765 16.1398 13.765C16.3828 13.765 16.6159 13.6685 16.7878 13.4966L21.3244 8.95911C21.5373 8.7463 21.7061 8.49364 21.8213 8.21557C21.9365 7.93749 21.9958 7.63944 21.9958 7.33845C21.9958 7.03745 21.9365 6.7394 21.8213 6.46132C21.7061 6.18325 21.5373 5.93059 21.3244 5.71778L16.7869 1.18119C16.6126 1.02314 16.3842 0.938165 16.1489 0.943874C15.9137 0.949582 15.6897 1.04553 15.5232 1.21186C15.3568 1.37819 15.2607 1.60215 15.2548 1.83738C15.2489 2.07262 15.3337 2.3011 15.4917 2.47553L19.4333 6.41719H4.58333C3.36776 6.41719 2.20197 6.90008 1.34243 7.75962C0.482886 8.61916 0 9.78495 0 11.0005L0 17.4172C0.00145554 18.6323 0.484808 19.7973 1.34403 20.6565C2.20326 21.5157 3.3682 21.9991 4.58333 22.0005H17.4167C17.6598 22.0005 17.8929 21.904 18.0648 21.732C18.2368 21.5601 18.3333 21.327 18.3333 21.0839C18.3333 20.8407 18.2368 20.6076 18.0648 20.4357C17.8929 20.2638 17.6598 20.1672 17.4167 20.1672H4.58333C3.85399 20.1672 3.15451 19.8775 2.63879 19.3617C2.12306 18.846 1.83333 18.1465 1.83333 17.4172V11.0005C1.83333 10.2712 2.12306 9.57171 2.63879 9.05598C3.15451 8.54026 3.85399 8.25053 4.58333 8.25053V8.25053H19.4443L15.4917 12.2004C15.3198 12.3723 15.2233 12.6055 15.2233 12.8485C15.2233 13.0916 15.3198 13.3247 15.4917 13.4966Z" fill="#374957"/>
</g>
<defs>
<clipPath id="clip0_2919_917">
<rect width="22" height="22" fill="white"/>
</clipPath>
</defs>
</svg>
