<svg width="24" height="24" viewBox="0 0 24 24" fill="none" xmlns="http://www.w3.org/2000/svg">
<path d="M14.12 17.7101L18.41 13.4101C18.7825 13.0353 18.9916 12.5284 18.9916 12.0001C18.9916 11.4717 18.7825 10.9648 18.41 10.5901L14.12 6.29006C13.9326 6.10381 13.6792 5.99927 13.415 5.99927C13.1508 5.99927 12.8974 6.10381 12.71 6.29006C12.6163 6.38302 12.5419 6.49362 12.4911 6.61548C12.4403 6.73734 12.4142 6.86805 12.4142 7.00006C12.4142 7.13207 12.4403 7.26278 12.4911 7.38464C12.5419 7.5065 12.6163 7.6171 12.71 7.71006L16 11.0001H4.99999C4.73478 11.0001 4.48042 11.1054 4.29288 11.293C4.10535 11.4805 3.99999 11.7348 3.99999 12.0001C3.99999 12.2653 4.10535 12.5196 4.29288 12.7072C4.48042 12.8947 4.73478 13.0001 4.99999 13.0001H16L12.71 16.2901C12.5217 16.477 12.4154 16.7312 12.4144 16.9965C12.4135 17.2619 12.518 17.5168 12.705 17.7051C12.892 17.8934 13.1461 17.9997 13.4115 18.0006C13.6768 18.0016 13.9317 17.897 14.12 17.7101Z" fill="#8B8B8B"/>
</svg>
