<svg width="24" height="24" viewBox="0 0 24 24" fill="none" xmlns="http://www.w3.org/2000/svg">
  <path d="M19 0H5C2.24 0 0 2.24 0 5v14c0 2.76 2.24 5 5 5h11.34c1.33 0 2.6-.52 3.54-1.46l2.66-2.66A4.97 4.97 0 0 0 24 16.34V5c0-2.76-2.24-5-5-5ZM2 19V5c0-1.66 1.34-3 3-3h14c1.66 0 3 1.34 3 3v10h-4c-1.66 0-3 1.34-3 3v4H5c-1.66 0-3-1.34-3-3Zm16.46 2.12c-.4.4-.91.68-1.46.8V18c0-.55.45-1 1-1h3.93a3.01 3.01 0 0 1-.8 1.46l-2.67 2.66Z" fill="#333333"/>
  <text x="3.7" y="10.65" fill="#333333" font-family="Arial, Helvetica, sans-serif" font-size="6.4" font-weight="800">PDF</text>
</svg>
