<svg width="24" height="24" viewBox="0 0 24 24" fill="none" xmlns="http://www.w3.org/2000/svg">
<path d="M9.88001 6.2897L5.59001 10.5897C5.21751 10.9644 5.00842 11.4713 5.00842 11.9997C5.00842 12.5281 5.21751 13.035 5.59001 13.4097L9.88001 17.7097C10.0674 17.8959 10.3208 18.0005 10.585 18.0005C10.8492 18.0005 11.1026 17.8959 11.29 17.7097C11.3837 17.6167 11.4581 17.5061 11.5089 17.3843C11.5597 17.2624 11.5858 17.1317 11.5858 16.9997C11.5858 16.8677 11.5597 16.737 11.5089 16.6151C11.4581 16.4933 11.3837 16.3827 11.29 16.2897L8.00001 12.9997H19C19.2652 12.9997 19.5196 12.8943 19.7071 12.7068C19.8947 12.5193 20 12.2649 20 11.9997C20 11.7345 19.8947 11.4801 19.7071 11.2926C19.5196 11.1051 19.2652 10.9997 19 10.9997H8.00001L11.29 7.70969C11.4783 7.52272 11.5846 7.2686 11.5856 7.00323C11.5865 6.73787 11.482 6.483 11.295 6.2947C11.108 6.10639 10.8539 6.00008 10.5885 5.99914C10.3232 5.9982 10.0683 6.10272 9.88001 6.2897Z" fill="#333333"/>
</svg>
