<svg width="10" height="15" viewBox="0 0 10 15" fill="none" xmlns="http://www.w3.org/2000/svg">
<path d="M2.6709 5.625H7.32923C7.41164 5.62552 7.49209 5.66268 7.56042 5.73178C7.62875 5.80088 7.68188 5.89882 7.7131 6.01322C7.74432 6.12761 7.75222 6.25332 7.73581 6.37446C7.7194 6.49559 7.67941 6.6067 7.6209 6.69375L5.2959 10.1812C5.25717 10.2398 5.21108 10.2863 5.16031 10.318C5.10953 10.3498 5.05507 10.3661 5.00007 10.3661C4.94506 10.3661 4.8906 10.3498 4.83983 10.318C4.78905 10.2863 4.74297 10.2398 4.70423 10.1812L2.37923 6.69375C2.32073 6.6067 2.28074 6.49559 2.26433 6.37446C2.24792 6.25332 2.25582 6.12761 2.28704 6.01322C2.31826 5.89882 2.37139 5.80088 2.43972 5.73178C2.50804 5.66268 2.5885 5.62552 2.6709 5.625V5.625Z" fill="#333333"/>
</svg>
