<svg width="18" height="18" viewBox="0 0 18 18" fill="none" xmlns="http://www.w3.org/2000/svg">
<g clip-path="url(#clip0_2770_1544)">
<path d="M14.0177 0H3.68887C2.71088 0.00114509 1.77328 0.381405 1.08174 1.05737C0.390196 1.73333 0.00117148 2.64981 0 3.60577L0 13.7019C0.00117148 14.6579 0.390196 15.5744 1.08174 16.2503C1.77328 16.9263 2.71088 17.3065 3.68887 17.3077H14.0177C14.9957 17.3065 15.9333 16.9263 16.6248 16.2503C17.3164 15.5744 17.7054 14.6579 17.7066 13.7019V3.60577C17.7054 2.64981 17.3164 1.73333 16.6248 1.05737C15.9333 0.381405 14.9957 0.00114509 14.0177 0V0ZM16.231 13.7019C16.231 14.2757 15.9979 14.826 15.5828 15.2317C15.1677 15.6374 14.6047 15.8654 14.0177 15.8654H3.68887C3.10186 15.8654 2.5389 15.6374 2.12382 15.2317C1.70874 14.826 1.47555 14.2757 1.47555 13.7019V3.60577C1.47555 3.03198 1.70874 2.4817 2.12382 2.07597C2.5389 1.67024 3.10186 1.44231 3.68887 1.44231H14.0177C14.6047 1.44231 15.1677 1.67024 15.5828 2.07597C15.9979 2.4817 16.231 3.03198 16.231 3.60577V13.7019ZM13.2799 6.49038C13.2799 6.68165 13.2022 6.86507 13.0639 7.00032C12.9255 7.13556 12.7378 7.21154 12.5422 7.21154C12.3465 7.21154 12.1588 7.13556 12.0205 7.00032C11.8821 6.86507 11.8044 6.68165 11.8044 6.49038C11.8044 6.29912 11.7267 6.11569 11.5883 5.98045C11.4499 5.84521 11.2623 5.76923 11.0666 5.76923H9.59107V11.5385H10.3288C10.5245 11.5385 10.7122 11.6144 10.8505 11.7497C10.9889 11.8849 11.0666 12.0684 11.0666 12.2596C11.0666 12.4509 10.9889 12.6343 10.8505 12.7695C10.7122 12.9048 10.5245 12.9808 10.3288 12.9808H7.37775C7.18208 12.9808 6.99442 12.9048 6.85606 12.7695C6.7177 12.6343 6.63997 12.4509 6.63997 12.2596C6.63997 12.0684 6.7177 11.8849 6.85606 11.7497C6.99442 11.6144 7.18208 11.5385 7.37775 11.5385H8.11552V5.76923H6.63997C6.4443 5.76923 6.25665 5.84521 6.11829 5.98045C5.97993 6.11569 5.9022 6.29912 5.9022 6.49038C5.9022 6.68165 5.82447 6.86507 5.68611 7.00032C5.54775 7.13556 5.36009 7.21154 5.16442 7.21154C4.96875 7.21154 4.7811 7.13556 4.64274 7.00032C4.50438 6.86507 4.42665 6.68165 4.42665 6.49038C4.42665 5.9166 4.65984 5.36631 5.07491 4.96059C5.48999 4.55486 6.05296 4.32692 6.63997 4.32692H11.0666C11.6536 4.32692 12.2166 4.55486 12.6317 4.96059C13.0468 5.36631 13.2799 5.9166 13.2799 6.49038Z" fill="#333333"/>
</g>
<defs>
<clipPath id="clip0_2770_1544">
<rect width="17.7066" height="17.3077" fill="white"/>
</clipPath>
</defs>
</svg>
