<svg width="18" height="18" viewBox="0 0 18 18" fill="none" xmlns="http://www.w3.org/2000/svg">
<path d="M13.5 4.49986C13.3593 4.35926 13.1686 4.28027 12.9697 4.28027C12.7709 4.28027 12.5801 4.35926 12.4395 4.49986L8.99999 7.93936L5.56049 4.49986C5.41984 4.35926 5.22911 4.28027 5.03024 4.28027C4.83136 4.28027 4.64063 4.35926 4.49999 4.49986C4.35938 4.64051 4.2804 4.83124 4.2804 5.03011C4.2804 5.22899 4.35938 5.41972 4.49999 5.56036L7.93949 8.99986L4.49999 12.4394C4.35938 12.58 4.2804 12.7707 4.2804 12.9696C4.2804 13.1685 4.35938 13.3592 4.49999 13.4999C4.64063 13.6405 4.83136 13.7195 5.03024 13.7195C5.22911 13.7195 5.41984 13.6405 5.56049 13.4999L8.99999 10.0604L12.4395 13.4999C12.5801 13.6405 12.7709 13.7195 12.9697 13.7195C13.1686 13.7195 13.3593 13.6405 13.5 13.4999C13.6406 13.3592 13.7196 13.1685 13.7196 12.9696C13.7196 12.7707 13.6406 12.58 13.5 12.4394L10.0605 8.99986L13.5 5.56036C13.6406 5.41972 13.7196 5.22899 13.7196 5.03011C13.7196 4.83124 13.6406 4.64051 13.5 4.49986V4.49986Z" fill="black"/>
</svg>
