<svg width="18" height="18" viewBox="0 0 18 18" fill="none" xmlns="http://www.w3.org/2000/svg">
<path d="M14.0176 0C14.502 0 14.9821 0.0932072 15.4297 0.274414C15.877 0.455586 16.2836 0.721002 16.626 1.05566C16.9685 1.39047 17.2404 1.78814 17.4258 2.22559C17.6112 2.66304 17.707 3.13197 17.707 3.60547V13.7021C17.707 14.1755 17.6111 14.6447 17.4258 15.082C17.2404 15.5193 16.9684 15.9163 16.626 16.251C16.2835 16.5858 15.8772 16.852 15.4297 17.0332C14.9821 17.2144 14.502 17.3076 14.0176 17.3076H3.68848C2.71027 17.3075 1.77178 16.9271 1.08008 16.251C0.737859 15.9164 0.466561 15.5191 0.28125 15.082C0.0959281 14.6447 6.30643e-05 14.1755 0 13.7021V3.60547C1.52559e-05 2.64922 0.38835 1.73186 1.08008 1.05566C1.77178 0.379542 2.71027 0.000102514 3.68848 0H14.0176ZM3.68848 1.44238C3.10161 1.44249 2.53901 1.67054 2.12402 2.07617C1.70903 2.48188 1.4756 3.03176 1.47559 3.60547V13.7021C1.47571 14.2758 1.70906 14.8258 2.12402 15.2314C2.539 15.637 3.10165 15.8651 3.68848 15.8652H14.0176C14.6046 15.8652 15.1679 15.6372 15.583 15.2314C15.9979 14.8258 16.2313 14.2757 16.2314 13.7021V3.60547C16.2314 3.03186 15.9979 2.48185 15.583 2.07617C15.1679 1.67044 14.6046 1.44238 14.0176 1.44238H3.68848ZM13.3105 11.0576C13.5992 11.0576 13.833 11.2726 13.833 11.5381C13.833 11.8036 13.5992 12.0186 13.3105 12.0186H8.08496C7.79634 12.0186 7.5625 11.8036 7.5625 11.5381C7.56251 11.2726 7.79635 11.0576 8.08496 11.0576H13.3105ZM4.65918 5.1377C4.78094 5.1377 4.89799 5.18468 4.98438 5.26855L7.10059 7.33789C7.35963 7.59142 7.50585 7.93465 7.50586 8.29297C7.50586 8.65128 7.35962 8.99452 7.10059 9.24805L4.98438 11.3174C4.89765 11.4015 4.78038 11.4486 4.6582 11.4482C4.53592 11.4478 4.41823 11.4002 4.33203 11.3154C4.2459 11.2306 4.19791 11.1156 4.19824 10.9961C4.19867 10.8767 4.2474 10.762 4.33398 10.6777L6.45508 8.61328C6.49822 8.57146 6.53323 8.5216 6.55664 8.4668C6.58005 8.41187 6.5918 8.35247 6.5918 8.29297C6.59179 8.23365 6.57991 8.1749 6.55664 8.12012C6.53323 8.06519 6.4983 8.01456 6.45508 7.97266L4.33398 5.9082C4.29097 5.86639 4.25673 5.81646 4.2334 5.76172C4.21008 5.70693 4.19827 5.64821 4.19824 5.58887C4.19824 5.52937 4.20999 5.46996 4.2334 5.41504C4.25678 5.36027 4.29089 5.31037 4.33398 5.26855C4.42032 5.18466 4.53745 5.13776 4.65918 5.1377Z" fill="#8B8B8B"/>
</svg>
